<svg width="93" height="92" viewBox="0 0 93 92" fill="none" xmlns="http://www.w3.org/2000/svg">
<g clip-path="url(#clip0_6_1866)">
<mask id="mask0_6_1866" style="mask-type:luminance" maskUnits="userSpaceOnUse" x="0" y="0" width="93" height="92">
<path d="M93 0H0V92H93V0Z" fill="white"/>
</mask>
<g mask="url(#mask0_6_1866)">
<path d="M91.8926 45.9996C91.8926 21.1995 71.5698 1.09497 46.4997 1.09497C21.43 1.09497 1.10693 21.1995 1.10693 45.9996C1.10693 70.8001 21.43 90.9044 46.4997 90.9044C71.5698 90.9044 91.8926 70.8001 91.8926 45.9996Z" fill="#1B1C22"/>
<path d="M91.8926 45.9996C91.8926 21.1995 71.5698 1.09497 46.4997 1.09497C21.43 1.09497 1.10693 21.1995 1.10693 45.9996C1.10693 70.8001 21.43 90.9044 46.4997 90.9044C71.5698 90.9044 91.8926 70.8001 91.8926 45.9996Z" stroke="#363843"/>
</g>
<path d="M69.9975 47.4839C70.0056 40.6493 69.9975 33.8106 70.0421 26.976C70.0502 25.988 70.3016 25.0041 70.4395 24.0162C70.5409 24.0121 70.6423 24.004 70.7477 24C70.7802 24.1377 70.8086 24.2753 70.8369 24.413C70.8086 24.9475 70.7518 25.486 70.7518 26.0204C70.7396 38.892 70.7315 51.7636 70.7356 64.6312C70.7356 65.9066 70.8207 67.182 70.8653 68.4574C70.5855 67.6355 70.0745 66.8136 70.0624 65.9876C69.9853 59.821 70.0056 53.6545 69.9934 47.4839H69.9975Z" fill="#3D393F"/>
<path d="M80.996 43.4349C80.9838 50.7473 80.9838 58.0597 80.9432 65.3721C80.9392 66.2912 80.7202 67.2104 80.6026 68.1295C80.5823 53.5614 80.562 38.9932 80.5417 24.4251L80.5539 24.4049C80.6918 25.2511 80.9392 26.0933 80.9473 26.9395C80.9919 32.438 80.9878 37.9365 81 43.4309L80.996 43.4349Z" fill="#17301B"/>
<path d="M40.7452 41.8235C41.1873 41.0177 41.682 40.2322 42.0673 39.3981C44.3789 34.4503 46.6662 29.4904 48.9616 24.5345C52.0641 24.5021 55.1665 24.4697 58.2649 24.4373L58.1919 24.4413C59.0192 32.1141 59.9682 39.7788 60.6374 47.4677C61.2335 54.3388 61.5174 61.2341 61.9392 68.1214C61.7851 68.2752 61.631 68.4291 61.4809 68.5789C58.3866 68.583 55.2882 68.5911 52.1939 68.5951C52.0722 68.4493 51.9546 68.3036 51.8329 68.1619C51.8208 66.68 51.8329 65.194 51.7924 63.7121C51.6585 58.9627 51.5612 54.2132 51.3382 49.4719C51.1881 46.3421 50.8393 43.2244 50.5798 40.1027C50.4703 40.0946 50.3567 40.0865 50.2472 40.0824C49.9309 40.9287 49.6186 41.7789 49.3023 42.6252L49.3145 42.6049C49.0225 43.2892 48.7305 43.9694 48.4385 44.6537L48.4831 44.601C48.3493 44.8885 48.2195 45.176 48.0857 45.4635L48.0978 45.4432C47.8058 46.1234 47.5138 46.8077 47.2218 47.4879L47.2624 47.4353C47.0474 47.8524 46.8366 48.2694 46.6216 48.6905C46.3093 49.5165 45.993 50.3465 45.6808 51.1725C45.5348 51.5733 45.3888 51.9742 45.2428 52.371V52.2981C45.1049 52.5937 44.967 52.8892 44.8291 53.1848V53.1038C44.6953 53.3913 44.5655 53.6788 44.4317 53.9663L44.4398 53.946C44.3019 54.3671 44.1599 54.7841 44.0221 55.2052V55.1324C43.8842 55.4279 43.7463 55.7235 43.6084 56.0191V55.9381C43.4705 56.2296 43.3367 56.5171 43.1988 56.8086L43.2191 56.7722C43.0812 57.1933 42.9433 57.6184 42.8014 58.0395V57.9666C42.6635 58.2622 42.5256 58.5578 42.3918 58.8493V58.7683C42.2539 59.0598 42.116 59.3514 41.9822 59.6429C41.9822 59.6429 42.0065 59.5983 42.0024 59.5983C41.8889 59.8777 41.7753 60.1571 41.6618 60.4324C41.605 60.5418 41.5766 60.6592 41.5847 60.7847C41.4468 61.0843 41.313 61.3799 41.1751 61.6795V61.6026C41.0372 61.8981 40.9034 62.1937 40.7655 62.4893L40.8142 62.4407C40.6641 62.5905 40.5141 62.7403 40.364 62.8901L40.4127 62.8537C38.1254 62.8456 35.834 62.8416 33.5467 62.8335C33.5427 62.7039 33.5102 62.5824 33.4575 62.465C33.348 62.3071 33.2345 62.1492 33.125 61.9953C33.1331 61.8779 33.1087 61.7645 33.052 61.6593C32.6748 60.8333 32.2977 60.0073 31.9205 59.1773C31.9205 59.1773 31.961 59.2258 31.957 59.2258C31.5352 58.2581 31.1135 57.2904 30.6876 56.3268C30.6957 56.2094 30.6714 56.096 30.6146 55.9907C30.2334 55.1567 29.8522 54.3266 29.471 53.4925C29.4791 53.3751 29.4548 53.2617 29.398 53.1565C29.1547 52.5977 28.9113 52.039 28.672 51.4802C28.672 51.4802 28.6761 51.5612 28.6802 51.5612C28.5423 51.2575 28.4003 50.9579 28.2584 50.6542C28.2665 50.5368 28.2422 50.4234 28.1854 50.3222C27.9421 49.7635 27.6987 49.2047 27.4595 48.6459C27.4595 48.6459 27.4676 48.7269 27.4716 48.7269C27.3337 48.4313 27.1918 48.1358 27.0499 47.8362L27.0945 47.8888C26.8065 47.1883 26.5186 46.4919 26.2306 45.7914C26.2388 45.674 26.2144 45.5647 26.1576 45.4594C25.7805 44.6294 25.4033 43.8034 25.0262 42.9734C25.0262 42.9734 25.0302 43.0543 25.0343 43.0543C24.8923 42.7547 24.7504 42.4511 24.6085 42.1514C24.6166 42.034 24.5922 41.9206 24.5355 41.8154C24.2759 41.1149 24.0204 40.4144 23.7609 39.714C23.3269 41.4955 23.3918 43.2042 23.3148 44.9088C22.9538 52.6544 22.5483 60.396 22.1589 68.1376C21.7493 68.4251 21.3438 68.7125 20.9342 69C18.6793 68.9757 16.4285 68.9798 14.1737 68.9109C13.5613 68.8907 12.9611 68.6558 12.3528 68.5222C12.6448 62.959 12.8841 57.3917 13.249 51.8325C13.5451 47.3543 13.9871 42.8802 14.3886 38.4102C14.7982 33.8794 15.2403 29.3527 15.6661 24.826C15.7999 24.6883 15.9338 24.5547 16.0636 24.417C19.1782 24.4251 22.2887 24.4292 25.4033 24.4373L25.3587 24.4009C25.5088 24.5507 25.6548 24.6964 25.8048 24.8462L25.7156 24.8219C26.2753 25.9152 26.8349 27.0124 27.3986 28.1056C28.2057 29.7293 29.0087 31.3529 29.8157 32.9725V32.8915C29.9536 33.1871 30.0915 33.4826 30.2294 33.7782V33.7013C30.3672 34.1264 30.5051 34.5516 30.6471 34.9727L30.6268 34.9403C31.0364 35.7703 31.4501 36.6044 31.8597 37.4344C31.8515 37.5559 31.8759 37.6733 31.9327 37.7786C32.0462 38.0579 32.1598 38.3333 32.2733 38.6127L32.253 38.5803C32.5248 39.139 32.7965 39.6937 33.0641 40.2525C33.0641 40.2525 33.0641 40.1755 33.0641 40.1715C33.202 40.4671 33.3399 40.7626 33.4778 41.0582V40.9853C33.6157 41.4105 33.7576 41.8316 33.8955 42.2567C33.8955 42.2567 33.8752 42.2162 33.8752 42.2203C34.0131 42.5118 34.151 42.8033 34.2889 43.0948C34.2889 43.0948 34.2848 43.0139 34.2808 43.0139C34.4146 43.3094 34.5525 43.6091 34.6904 43.9046C34.6904 43.9046 34.6579 43.8236 34.6579 43.8277C35.2135 45.1962 35.7732 46.5648 36.3288 47.9333C36.6167 48.4313 36.9087 48.9294 37.4643 49.8849C38.6607 46.9332 39.6989 44.3743 40.7371 41.8194L40.7452 41.8235Z" fill="#65B771"/>
<path d="M15.6824 24.826C15.2566 29.3527 14.8145 33.8835 14.4049 38.4102C14.0034 42.8843 13.5614 47.3543 13.2653 51.8325C12.8963 57.3917 12.661 62.959 12.369 68.5222C12.2474 67.7165 12.1217 66.9148 12 66.1131C12.0973 61.7524 12.1176 57.3836 12.3285 53.0269C12.4177 51.1684 12.9084 49.3343 13.2126 47.4879C13.7925 40.7626 14.3603 34.0373 14.9808 27.3161C15.0578 26.4699 15.4431 25.656 15.6864 24.826H15.6824Z" fill="#272D21"/>
<path d="M36.3369 47.9374C35.7772 46.5688 35.2216 45.2003 34.666 43.8317C35.2257 45.2003 35.7813 46.5688 36.3369 47.9374Z" fill="#26301C"/>
<path d="M33.0723 40.2646C32.8006 39.7059 32.5289 39.1512 32.2612 38.5924C32.5329 39.1512 32.8047 39.7059 33.0723 40.2646Z" fill="#26301C"/>
<path d="M30.6553 34.9848C30.5174 34.5597 30.3754 34.1345 30.2375 33.7134C30.3754 34.1386 30.5133 34.5637 30.6553 34.9848Z" fill="#26301C"/>
<path d="M33.482 41.0744C33.3441 40.7788 33.2022 40.4833 33.0684 40.1877C33.2062 40.4833 33.3441 40.7788 33.482 41.0744Z" fill="#26301C"/>
<path d="M34.6987 43.9127C34.5608 43.6171 34.4229 43.3175 34.2891 43.022C34.4269 43.3175 34.5648 43.6171 34.6987 43.9127Z" fill="#26301C"/>
<path d="M61.9392 68.1254C61.5174 61.2382 61.2335 54.3428 60.6374 47.4717C59.9723 39.7828 59.0192 32.1181 58.1919 24.4454C58.6177 25.988 59.1936 27.5064 59.4329 29.0733C59.9358 32.3692 60.2602 35.6893 60.6576 38.9973C61.2132 47.9009 61.7729 56.8046 62.3325 65.7082C62.2028 66.5139 62.0689 67.3197 61.9392 68.1214V68.1254Z" fill="#29331F"/>
<path d="M49.2983 42.6252C49.6147 41.7789 49.9269 40.9286 50.2433 40.0824C50.3528 40.0905 50.4663 40.0986 50.5758 40.1027C50.8354 43.2244 51.1841 46.3461 51.3342 49.4719C51.5613 54.2173 51.6546 58.9667 51.7884 63.7121C51.829 65.194 51.8168 66.6799 51.829 68.1619C51.6749 67.591 51.4031 67.0241 51.3788 66.4492C51.0787 59.5012 50.8597 52.5491 50.4906 45.6052C50.4379 44.5929 49.7161 43.6131 49.3024 42.6211L49.2983 42.6252Z" fill="#29331F"/>
<path d="M22.1711 68.1416C22.5605 60.4 22.962 52.6584 23.327 44.9128C23.4081 43.2082 23.3391 41.4996 23.7731 39.718C24.0326 40.4185 24.2881 41.1189 24.5477 41.8194C24.3003 42.3336 23.8542 42.8357 23.8298 43.3621C23.5095 49.7796 23.2945 56.2013 22.9498 62.6148C22.8525 64.4652 22.4388 66.2994 22.1711 68.1416Z" fill="#272D21"/>
<path d="M26.2349 45.7955C26.5228 46.4959 26.8107 47.1924 27.0987 47.8928C26.8107 47.1964 26.5228 46.4959 26.2349 45.7955Z" fill="#272D21"/>
<path d="M27.4675 48.65C27.7109 49.2087 27.9542 49.7675 28.1935 50.3263C27.9501 49.7675 27.7068 49.2087 27.4675 48.65Z" fill="#272D21"/>
<path d="M28.6843 51.4842C28.9277 52.043 29.171 52.6018 29.4103 53.1605C29.1669 52.6018 28.9236 52.043 28.6843 51.4842Z" fill="#272D21"/>
<path d="M46.6216 48.6905C46.8365 48.2734 47.0474 47.8564 47.2623 47.4353C47.0474 47.8523 46.8365 48.2694 46.6216 48.6905Z" fill="#29331F"/>
<path d="M45.2429 52.371C45.3889 51.9701 45.5349 51.5693 45.6809 51.1725C45.5349 51.5733 45.3889 51.9742 45.2429 52.371Z" fill="#26301C"/>
<path d="M27.054 47.8402C27.1959 48.1358 27.3378 48.4313 27.4757 48.731C27.3338 48.4354 27.1959 48.1398 27.054 47.8402Z" fill="#272D21"/>
<path d="M28.2666 50.6583C28.4085 50.9619 28.5505 51.2616 28.6884 51.5652C28.5464 51.2616 28.4045 50.9619 28.2666 50.6583Z" fill="#272D21"/>
<path d="M70.837 24.413C74.0733 24.4211 77.3096 24.4251 80.5418 24.4332C80.5621 39.0013 80.5824 53.5695 80.6026 68.1376C80.4485 68.2793 80.2944 68.425 80.1403 68.5668C77.0338 68.5303 73.9314 68.4979 70.8249 68.4615H70.8614C70.8168 67.1861 70.7316 65.9107 70.7275 64.6352C70.7275 51.7636 70.7316 38.892 70.7438 26.0245C70.7438 25.49 70.7965 24.9515 70.8289 24.417L70.837 24.413Z" fill="#6456A1"/>
</g>
<defs>
<clipPath id="clip0_6_1866">
<rect width="93" height="92" fill="white"/>
</clipPath>
</defs>
</svg>
